<svg xmlns="http://www.w3.org/2000/svg" xmlns:xlink="http://www.w3.org/1999/xlink" width="500" zoomAndPan="magnify" viewBox="0 0 375 374.999991" height="500" preserveAspectRatio="xMidYMid meet" version="1.0"><defs><g/><clipPath id="81f7772916"><path d="M 179 5.429688 L 349 5.429688 L 349 322 L 179 322 Z M 179 5.429688 " clip-rule="nonzero"/></clipPath><clipPath id="65616486b2"><path d="M 31.125 26 L 329 26 L 329 323.429688 L 31.125 323.429688 Z M 31.125 26 " clip-rule="nonzero"/></clipPath></defs><path fill="#e6affc" d="M 324.742188 174.703125 C 324.742188 228.378906 295.582031 275.242188 252.238281 300.320312 L 179.710938 174.707031 L 179.710938 29.675781 C 259.808594 29.675781 324.742188 94.605469 324.742188 174.703125 Z M 324.742188 174.703125 " fill-opacity="1" fill-rule="nonzero"/><g clip-path="url(#81f7772916)"><path fill="#ffffff" d="M 264.367188 321.324219 L 260.808594 315.175781 C 310.820312 286.242188 341.886719 232.414062 341.886719 174.703125 C 341.886719 85.277344 269.136719 12.527344 179.710938 12.527344 L 179.710938 5.429688 C 202.5625 5.429688 224.730469 9.902344 245.601562 18.730469 C 265.757812 27.257812 283.863281 39.460938 299.40625 55.007812 C 314.949219 70.550781 327.15625 88.65625 335.683594 108.8125 C 344.511719 129.683594 348.984375 151.851562 348.984375 174.703125 C 348.984375 204.945312 340.914062 234.625 325.644531 260.53125 C 310.820312 285.683594 289.628906 306.703125 264.367188 321.320312 Z M 264.367188 321.324219 " fill-opacity="1" fill-rule="nonzero"/></g><g clip-path="url(#65616486b2)"><path fill="#ffffff" d="M 179.710938 323.28125 C 159.652344 323.28125 140.195312 319.355469 121.875 311.605469 C 104.183594 304.121094 88.292969 293.410156 74.648438 279.765625 C 61.003906 266.121094 50.292969 250.230469 42.808594 232.539062 C 35.058594 214.21875 31.128906 194.757812 31.128906 174.703125 C 31.128906 154.648438 35.058594 135.1875 42.808594 116.867188 C 50.292969 99.175781 61.003906 83.285156 74.648438 69.640625 C 88.292969 55.996094 104.183594 45.285156 121.875 37.800781 C 140.195312 30.054688 159.652344 26.125 179.710938 26.125 C 199.765625 26.125 219.226562 30.054688 237.546875 37.800781 C 255.238281 45.285156 271.128906 56 284.773438 69.640625 C 298.417969 83.285156 309.128906 99.175781 316.613281 116.867188 C 324.359375 135.1875 328.289062 154.648438 328.289062 174.703125 C 328.289062 194.761719 324.363281 214.21875 316.613281 232.539062 C 309.128906 250.230469 298.417969 266.121094 284.773438 279.765625 C 271.128906 293.410156 255.238281 304.121094 237.546875 311.605469 C 219.226562 319.355469 199.765625 323.28125 179.710938 323.28125 Z M 179.710938 33.222656 C 101.699219 33.222656 38.230469 96.691406 38.230469 174.703125 C 38.230469 252.714844 101.699219 316.183594 179.710938 316.183594 C 257.722656 316.183594 321.191406 252.714844 321.191406 174.703125 C 321.191406 96.691406 257.722656 33.222656 179.710938 33.222656 Z M 179.710938 33.222656 " fill-opacity="1" fill-rule="nonzero"/></g><path fill="#ffffff" d="M 176.160156 48.152344 L 183.261719 48.152344 L 183.261719 71.21875 L 176.160156 71.21875 Z M 176.160156 48.152344 " fill-opacity="1" fill-rule="nonzero"/><path fill="#ffffff" d="M 176.160156 278.1875 L 183.261719 278.1875 L 183.261719 301.253906 L 176.160156 301.253906 Z M 176.160156 278.1875 " fill-opacity="1" fill-rule="nonzero"/><path fill="#ffffff" d="M 228.378906 83.304688 L 239.910156 63.328125 L 246.058594 66.878906 L 234.523438 86.851562 Z M 228.378906 83.304688 " fill-opacity="1" fill-rule="nonzero"/><path fill="#ffffff" d="M 113.363281 282.519531 L 124.894531 262.542969 L 131.042969 266.09375 L 119.507812 286.070312 Z M 113.363281 282.519531 " fill-opacity="1" fill-rule="nonzero"/><path fill="#ffffff" d="M 267.558594 119.882812 L 287.535156 108.347656 L 291.082031 114.496094 L 271.105469 126.027344 Z M 267.558594 119.882812 " fill-opacity="1" fill-rule="nonzero"/><path fill="#ffffff" d="M 68.34375 234.902344 L 88.320312 223.371094 L 91.867188 229.515625 L 71.890625 241.050781 Z M 68.34375 234.902344 " fill-opacity="1" fill-rule="nonzero"/><path fill="#ffffff" d="M 283.199219 171.152344 L 306.261719 171.152344 L 306.261719 178.253906 L 283.199219 178.253906 Z M 283.199219 171.152344 " fill-opacity="1" fill-rule="nonzero"/><path fill="#ffffff" d="M 53.160156 171.152344 L 76.222656 171.152344 L 76.222656 178.253906 L 53.160156 178.253906 Z M 53.160156 171.152344 " fill-opacity="1" fill-rule="nonzero"/><path fill="#ffffff" d="M 267.558594 229.519531 L 271.109375 223.371094 L 291.082031 234.90625 L 287.535156 241.054688 Z M 267.558594 229.519531 " fill-opacity="1" fill-rule="nonzero"/><path fill="#ffffff" d="M 68.339844 114.5 L 71.886719 108.355469 L 91.863281 119.886719 L 88.3125 126.035156 Z M 68.339844 114.5 " fill-opacity="1" fill-rule="nonzero"/><path fill="#ffffff" d="M 228.378906 266.097656 L 234.527344 262.550781 L 246.0625 282.527344 L 239.914062 286.074219 Z M 228.378906 266.097656 " fill-opacity="1" fill-rule="nonzero"/><path fill="#ffffff" d="M 113.359375 66.878906 L 119.507812 63.332031 L 131.039062 83.304688 L 124.894531 86.855469 Z M 113.359375 66.878906 " fill-opacity="1" fill-rule="nonzero"/><path fill="#ffffff" d="M 144.027344 126.757812 C 141.761719 128.410156 139.226562 130.960938 136.425781 134.414062 L 124.78125 125.035156 C 126.648438 122.503906 128.535156 120.261719 130.441406 118.308594 C 132.347656 116.351562 134.394531 114.707031 136.585938 113.367188 C 138.777344 112.027344 141.203125 111.011719 143.863281 110.324219 C 146.523438 109.636719 149.542969 109.292969 152.921875 109.292969 C 156.945312 109.292969 160.554688 109.851562 163.753906 110.964844 C 166.953125 112.078125 169.683594 113.660156 171.949219 115.707031 C 174.214844 117.753906 175.9375 120.21875 177.125 123.09375 C 178.3125 125.96875 178.902344 129.167969 178.902344 132.6875 C 178.902344 135.851562 178.488281 138.671875 177.664062 141.152344 C 176.835938 143.628906 175.613281 145.984375 173.996094 148.210938 C 172.378906 150.441406 170.3125 152.652344 167.796875 154.84375 C 165.28125 157.035156 162.371094 159.425781 159.066406 162.011719 L 146.773438 171.5 L 179.65625 171.5 L 179.65625 185.839844 L 123.808594 185.839844 L 123.808594 172.710938 L 148.929688 152.152344 C 151.300781 150.214844 153.3125 148.476562 154.96875 146.933594 C 156.621094 145.390625 157.96875 143.921875 159.011719 142.519531 C 160.054688 141.121094 160.808594 139.757812 161.277344 138.429688 C 161.742188 137.101562 161.976562 135.652344 161.976562 134.074219 C 161.976562 130.84375 161.042969 128.40625 159.175781 126.753906 C 157.304688 125.105469 154.863281 124.277344 151.84375 124.277344 C 148.824219 124.277344 146.289062 125.105469 144.027344 126.757812 Z M 144.027344 126.757812 " fill-opacity="1" fill-rule="nonzero"/><path fill="#ffffff" d="M 191.085938 110.371094 L 237.53125 110.371094 L 237.53125 124.925781 L 205.316406 124.925781 L 204.453125 137.972656 C 205.964844 137.613281 207.472656 137.308594 208.980469 137.054688 C 210.492188 136.804688 212.289062 136.675781 214.375 136.675781 C 218.109375 136.675781 221.582031 137.144531 224.792969 138.078125 C 228.003906 139.011719 230.800781 140.449219 233.191406 142.390625 C 235.578125 144.332031 237.457031 146.828125 238.832031 149.882812 C 240.207031 152.941406 240.894531 156.621094 240.894531 160.933594 C 240.894531 164.960938 240.207031 168.589844 238.832031 171.824219 C 237.457031 175.058594 235.523438 177.808594 233.027344 180.070312 C 230.53125 182.335938 227.496094 184.078125 223.929688 185.300781 C 220.363281 186.519531 216.421875 187.132812 212.109375 187.132812 C 206 187.132812 200.679688 186.132812 196.152344 184.132812 C 191.625 182.136719 187.527344 179.390625 183.863281 175.890625 L 193.890625 163.953125 C 196.761719 166.539062 199.636719 168.550781 202.511719 169.988281 C 205.386719 171.429688 208.515625 172.144531 211.894531 172.144531 C 215.773438 172.144531 218.847656 171.242188 221.113281 169.4375 C 223.375 167.632812 224.507812 164.996094 224.507812 161.527344 C 224.507812 158.058594 223.300781 155.636719 220.894531 153.832031 C 218.484375 152.027344 215.234375 151.121094 211.140625 151.121094 C 208.765625 151.121094 206.519531 151.390625 204.398438 151.929688 C 202.28125 152.46875 200.320312 153.136719 198.523438 153.925781 L 188.929688 147.566406 Z M 191.085938 110.371094 " fill-opacity="1" fill-rule="nonzero"/><path fill="#ffffff" d="M 166.851562 235.132812 L 166.851562 218.707031 C 166.851562 216.730469 166.429688 215.238281 165.585938 214.230469 C 164.742188 213.226562 163.53125 212.71875 161.953125 212.71875 C 160.375 212.71875 159.132812 213.226562 158.234375 214.230469 C 157.335938 215.238281 156.886719 216.730469 156.886719 218.707031 L 156.886719 235.132812 L 148.515625 235.132812 L 148.515625 218.707031 C 148.515625 216.730469 148.09375 215.238281 147.25 214.230469 C 146.402344 213.226562 145.191406 212.71875 143.613281 212.71875 C 142.035156 212.71875 140.796875 213.226562 139.894531 214.230469 C 138.996094 215.238281 138.546875 216.730469 138.546875 218.707031 L 138.546875 235.132812 L 130.175781 235.132812 L 130.175781 205.617188 L 138.546875 205.617188 L 138.546875 209.835938 C 139.023438 209.207031 139.546875 208.605469 140.117188 208.03125 C 140.683594 207.460938 141.320312 206.953125 142.015625 206.507812 C 142.714844 206.0625 143.496094 205.710938 144.355469 205.453125 C 145.21875 205.195312 146.183594 205.0625 147.25 205.0625 C 149.195312 205.0625 150.875 205.46875 152.289062 206.285156 C 153.699219 207.097656 154.792969 208.261719 155.5625 209.777344 C 156.847656 208.226562 158.28125 207.050781 159.859375 206.257812 C 161.4375 205.460938 163.238281 205.0625 165.257812 205.0625 C 168.375 205.0625 170.820312 205.980469 172.582031 207.816406 C 174.34375 209.652344 175.222656 212.351562 175.222656 215.914062 L 175.222656 235.132812 Z M 166.851562 235.132812 " fill-opacity="1" fill-rule="nonzero"/><path fill="#ffffff" d="M 184.859375 202.367188 L 184.859375 194.929688 L 193.671875 194.929688 L 193.671875 202.367188 Z M 185.082031 235.132812 L 185.082031 205.613281 L 193.453125 205.613281 L 193.453125 235.132812 Z M 185.082031 235.132812 " fill-opacity="1" fill-rule="nonzero"/><path fill="#ffffff" d="M 222.199219 235.132812 L 222.199219 218.707031 C 222.199219 216.730469 221.757812 215.238281 220.878906 214.230469 C 219.996094 213.226562 218.746094 212.71875 217.132812 212.71875 C 215.515625 212.71875 214.242188 213.226562 213.304688 214.230469 C 212.367188 215.238281 211.898438 216.730469 211.898438 218.707031 L 211.898438 235.132812 L 203.527344 235.132812 L 203.527344 205.617188 L 211.898438 205.617188 L 211.898438 209.835938 C 212.375 209.207031 212.898438 208.605469 213.46875 208.03125 C 214.039062 207.460938 214.671875 206.953125 215.367188 206.507812 C 216.066406 206.0625 216.835938 205.710938 217.679688 205.453125 C 218.527344 205.195312 219.480469 205.0625 220.546875 205.0625 C 223.738281 205.0625 226.207031 206.039062 227.953125 207.984375 C 229.695312 209.929688 230.570312 212.609375 230.570312 216.023438 L 230.570312 235.132812 Z M 222.199219 235.132812 " fill-opacity="1" fill-rule="nonzero"/><g fill="#ffffff" fill-opacity="1"><g transform="translate(117.962369, 358.849928)"><g><path d="M 2.625 -26.6875 L 1.640625 -29.6875 L 6.59375 -29.6875 C 7.90625 -29.6875 9.050781 -29.535156 10.03125 -29.234375 C 11.019531 -28.929688 11.847656 -28.4375 12.515625 -27.75 C 13.191406 -27.070312 13.691406 -26.15625 14.015625 -25 C 14.347656 -23.851562 14.515625 -22.445312 14.515625 -20.78125 C 14.515625 -19.09375 14.347656 -17.679688 14.015625 -16.546875 C 13.691406 -15.410156 13.191406 -14.492188 12.515625 -13.796875 C 11.847656 -13.097656 11.019531 -12.601562 10.03125 -12.3125 C 9.050781 -12.03125 7.90625 -11.890625 6.59375 -11.890625 L 6.59375 0 L 2.625 0 Z M 6.59375 -14.3125 C 7.332031 -14.332031 7.945312 -14.523438 8.4375 -14.890625 C 8.9375 -15.265625 9.320312 -15.753906 9.59375 -16.359375 C 9.863281 -16.960938 10.050781 -17.644531 10.15625 -18.40625 C 10.269531 -19.175781 10.328125 -19.96875 10.328125 -20.78125 C 10.328125 -21.570312 10.269531 -22.347656 10.15625 -23.109375 C 10.050781 -23.878906 9.863281 -24.566406 9.59375 -25.171875 C 9.320312 -25.773438 8.9375 -26.265625 8.4375 -26.640625 C 7.945312 -27.023438 7.332031 -27.21875 6.59375 -27.21875 Z M 6.59375 -14.3125 "/></g></g></g><g fill="#ffffff" fill-opacity="1"><g transform="translate(133.703374, 358.849928)"><g><path d="M 9.140625 0 C 7.367188 0 5.957031 -0.4375 4.90625 -1.3125 C 3.851562 -2.1875 3.050781 -3.328125 2.5 -4.734375 C 1.957031 -6.140625 1.609375 -7.726562 1.453125 -9.5 C 1.304688 -11.28125 1.234375 -13.0625 1.234375 -14.84375 C 1.234375 -16.613281 1.304688 -18.378906 1.453125 -20.140625 C 1.609375 -21.910156 1.957031 -23.503906 2.5 -24.921875 C 3.050781 -26.347656 3.851562 -27.5 4.90625 -28.375 C 5.957031 -29.25 7.367188 -29.6875 9.140625 -29.6875 C 10.921875 -29.6875 12.335938 -29.25 13.390625 -28.375 C 14.441406 -27.5 15.238281 -26.347656 15.78125 -24.921875 C 16.332031 -23.503906 16.679688 -21.910156 16.828125 -20.140625 C 16.984375 -18.378906 17.0625 -16.613281 17.0625 -14.84375 C 17.0625 -13.0625 16.984375 -11.28125 16.828125 -9.5 C 16.679688 -7.726562 16.332031 -6.140625 15.78125 -4.734375 C 15.238281 -3.328125 14.441406 -2.1875 13.390625 -1.3125 C 12.335938 -0.4375 10.921875 0 9.140625 0 Z M 9.140625 -1.96875 C 9.773438 -1.96875 10.320312 -2.335938 10.78125 -3.078125 C 11.25 -3.816406 11.640625 -4.785156 11.953125 -5.984375 C 12.265625 -7.191406 12.492188 -8.566406 12.640625 -10.109375 C 12.796875 -11.648438 12.875 -13.226562 12.875 -14.84375 C 12.875 -16.457031 12.796875 -18.035156 12.640625 -19.578125 C 12.492188 -21.117188 12.265625 -22.488281 11.953125 -23.6875 C 11.640625 -24.894531 11.25 -25.867188 10.78125 -26.609375 C 10.320312 -27.347656 9.773438 -27.71875 9.140625 -27.71875 C 8.515625 -27.71875 7.96875 -27.347656 7.5 -26.609375 C 7.039062 -25.867188 6.660156 -24.894531 6.359375 -23.6875 C 6.054688 -22.488281 5.820312 -21.117188 5.65625 -19.578125 C 5.488281 -18.035156 5.40625 -16.457031 5.40625 -14.84375 C 5.40625 -13.226562 5.488281 -11.648438 5.65625 -10.109375 C 5.820312 -8.566406 6.054688 -7.191406 6.359375 -5.984375 C 6.660156 -4.785156 7.039062 -3.816406 7.5 -3.078125 C 7.96875 -2.335938 8.515625 -1.96875 9.140625 -1.96875 Z M 9.140625 -1.96875 "/></g></g></g><g fill="#ffffff" fill-opacity="1"><g transform="translate(151.985893, 358.849928)"><g><path d="M 2.625 -26.6875 L 1.640625 -29.6875 L 5.578125 -29.6875 L 11.515625 -11.890625 L 16.484375 -26.6875 L 17.46875 -29.6875 L 20.421875 -29.6875 L 20.421875 0 L 16.484375 0 L 16.484375 -20.78125 L 11.515625 -5.9375 L 9.546875 -5.9375 L 4.59375 -20.78125 L 4.59375 0 L 2.625 0 Z M 2.625 -26.6875 "/></g></g></g><g fill="#ffffff" fill-opacity="1"><g transform="translate(174.654578, 358.849928)"><g><path d="M 9.140625 0 C 7.367188 0 5.957031 -0.4375 4.90625 -1.3125 C 3.851562 -2.1875 3.050781 -3.328125 2.5 -4.734375 C 1.957031 -6.140625 1.609375 -7.726562 1.453125 -9.5 C 1.304688 -11.28125 1.234375 -13.0625 1.234375 -14.84375 C 1.234375 -16.613281 1.304688 -18.378906 1.453125 -20.140625 C 1.609375 -21.910156 1.957031 -23.503906 2.5 -24.921875 C 3.050781 -26.347656 3.851562 -27.5 4.90625 -28.375 C 5.957031 -29.25 7.367188 -29.6875 9.140625 -29.6875 C 10.921875 -29.6875 12.335938 -29.25 13.390625 -28.375 C 14.441406 -27.5 15.238281 -26.347656 15.78125 -24.921875 C 16.332031 -23.503906 16.679688 -21.910156 16.828125 -20.140625 C 16.984375 -18.378906 17.0625 -16.613281 17.0625 -14.84375 C 17.0625 -13.0625 16.984375 -11.28125 16.828125 -9.5 C 16.679688 -7.726562 16.332031 -6.140625 15.78125 -4.734375 C 15.238281 -3.328125 14.441406 -2.1875 13.390625 -1.3125 C 12.335938 -0.4375 10.921875 0 9.140625 0 Z M 9.140625 -1.96875 C 9.773438 -1.96875 10.320312 -2.335938 10.78125 -3.078125 C 11.25 -3.816406 11.640625 -4.785156 11.953125 -5.984375 C 12.265625 -7.191406 12.492188 -8.566406 12.640625 -10.109375 C 12.796875 -11.648438 12.875 -13.226562 12.875 -14.84375 C 12.875 -16.457031 12.796875 -18.035156 12.640625 -19.578125 C 12.492188 -21.117188 12.265625 -22.488281 11.953125 -23.6875 C 11.640625 -24.894531 11.25 -25.867188 10.78125 -26.609375 C 10.320312 -27.347656 9.773438 -27.71875 9.140625 -27.71875 C 8.515625 -27.71875 7.96875 -27.347656 7.5 -26.609375 C 7.039062 -25.867188 6.660156 -24.894531 6.359375 -23.6875 C 6.054688 -22.488281 5.820312 -21.117188 5.65625 -19.578125 C 5.488281 -18.035156 5.40625 -16.457031 5.40625 -14.84375 C 5.40625 -13.226562 5.488281 -11.648438 5.65625 -10.109375 C 5.820312 -8.566406 6.054688 -7.191406 6.359375 -5.984375 C 6.660156 -4.785156 7.039062 -3.816406 7.5 -3.078125 C 7.96875 -2.335938 8.515625 -1.96875 9.140625 -1.96875 Z M 9.140625 -1.96875 "/></g></g></g><g fill="#ffffff" fill-opacity="1"><g transform="translate(192.937097, 358.849928)"><g><path d="M 2.625 -27.71875 L 1.640625 -29.6875 L 6.59375 -29.6875 C 11.875 -29.65625 14.515625 -24.707031 14.515625 -14.84375 C 14.515625 -4.976562 11.875 -0.03125 6.59375 0 L 2.625 0 Z M 6.59375 -2.421875 C 7.882812 -2.503906 8.847656 -3.515625 9.484375 -5.453125 C 10.128906 -7.390625 10.453125 -10.519531 10.453125 -14.84375 C 10.453125 -19.15625 10.128906 -22.28125 9.484375 -24.21875 C 8.847656 -26.164062 7.882812 -27.164062 6.59375 -27.21875 Z M 6.59375 -2.421875 "/></g></g></g><g fill="#ffffff" fill-opacity="1"><g transform="translate(208.678101, 358.849928)"><g><path d="M 9.140625 0 C 7.367188 0 5.957031 -0.4375 4.90625 -1.3125 C 3.851562 -2.1875 3.050781 -3.328125 2.5 -4.734375 C 1.957031 -6.140625 1.609375 -7.726562 1.453125 -9.5 C 1.304688 -11.28125 1.234375 -13.0625 1.234375 -14.84375 C 1.234375 -16.613281 1.304688 -18.378906 1.453125 -20.140625 C 1.609375 -21.910156 1.957031 -23.503906 2.5 -24.921875 C 3.050781 -26.347656 3.851562 -27.5 4.90625 -28.375 C 5.957031 -29.25 7.367188 -29.6875 9.140625 -29.6875 C 10.921875 -29.6875 12.335938 -29.25 13.390625 -28.375 C 14.441406 -27.5 15.238281 -26.347656 15.78125 -24.921875 C 16.332031 -23.503906 16.679688 -21.910156 16.828125 -20.140625 C 16.984375 -18.378906 17.0625 -16.613281 17.0625 -14.84375 C 17.0625 -13.0625 16.984375 -11.28125 16.828125 -9.5 C 16.679688 -7.726562 16.332031 -6.140625 15.78125 -4.734375 C 15.238281 -3.328125 14.441406 -2.1875 13.390625 -1.3125 C 12.335938 -0.4375 10.921875 0 9.140625 0 Z M 9.140625 -1.96875 C 9.773438 -1.96875 10.320312 -2.335938 10.78125 -3.078125 C 11.25 -3.816406 11.640625 -4.785156 11.953125 -5.984375 C 12.265625 -7.191406 12.492188 -8.566406 12.640625 -10.109375 C 12.796875 -11.648438 12.875 -13.226562 12.875 -14.84375 C 12.875 -16.457031 12.796875 -18.035156 12.640625 -19.578125 C 12.492188 -21.117188 12.265625 -22.488281 11.953125 -23.6875 C 11.640625 -24.894531 11.25 -25.867188 10.78125 -26.609375 C 10.320312 -27.347656 9.773438 -27.71875 9.140625 -27.71875 C 8.515625 -27.71875 7.96875 -27.347656 7.5 -26.609375 C 7.039062 -25.867188 6.660156 -24.894531 6.359375 -23.6875 C 6.054688 -22.488281 5.820312 -21.117188 5.65625 -19.578125 C 5.488281 -18.035156 5.40625 -16.457031 5.40625 -14.84375 C 5.40625 -13.226562 5.488281 -11.648438 5.65625 -10.109375 C 5.820312 -8.566406 6.054688 -7.191406 6.359375 -5.984375 C 6.660156 -4.785156 7.039062 -3.816406 7.5 -3.078125 C 7.96875 -2.335938 8.515625 -1.96875 9.140625 -1.96875 Z M 9.140625 -1.96875 "/></g></g></g><g fill="#ffffff" fill-opacity="1"><g transform="translate(226.96062, 358.849928)"><g><path d="M 2.625 -26.6875 L 1.640625 -29.6875 L 6.59375 -29.6875 C 7.90625 -29.6875 9.050781 -29.535156 10.03125 -29.234375 C 11.019531 -28.929688 11.847656 -28.4375 12.515625 -27.75 C 13.191406 -27.070312 13.691406 -26.15625 14.015625 -25 C 14.347656 -23.851562 14.515625 -22.445312 14.515625 -20.78125 C 14.515625 -18.65625 14.253906 -16.96875 13.734375 -15.71875 C 13.210938 -14.476562 12.429688 -13.546875 11.390625 -12.921875 L 14.515625 0 L 10.53125 0 L 7.671875 -11.890625 L 6.59375 -11.890625 L 6.59375 0 L 2.625 0 Z M 6.59375 -14.3125 C 7.332031 -14.332031 7.945312 -14.523438 8.4375 -14.890625 C 8.9375 -15.265625 9.320312 -15.753906 9.59375 -16.359375 C 9.863281 -16.960938 10.050781 -17.644531 10.15625 -18.40625 C 10.269531 -19.175781 10.328125 -19.96875 10.328125 -20.78125 C 10.328125 -21.570312 10.269531 -22.347656 10.15625 -23.109375 C 10.050781 -23.878906 9.863281 -24.566406 9.59375 -25.171875 C 9.320312 -25.773438 8.9375 -26.265625 8.4375 -26.640625 C 7.945312 -27.023438 7.332031 -27.21875 6.59375 -27.21875 Z M 6.59375 -14.3125 "/></g></g></g><g fill="#ffffff" fill-opacity="1"><g transform="translate(243.111551, 358.849928)"><g><path d="M 9.140625 0 C 7.367188 0 5.957031 -0.4375 4.90625 -1.3125 C 3.851562 -2.1875 3.050781 -3.328125 2.5 -4.734375 C 1.957031 -6.140625 1.609375 -7.726562 1.453125 -9.5 C 1.304688 -11.28125 1.234375 -13.0625 1.234375 -14.84375 C 1.234375 -16.613281 1.304688 -18.378906 1.453125 -20.140625 C 1.609375 -21.910156 1.957031 -23.503906 2.5 -24.921875 C 3.050781 -26.347656 3.851562 -27.5 4.90625 -28.375 C 5.957031 -29.25 7.367188 -29.6875 9.140625 -29.6875 C 10.921875 -29.6875 12.335938 -29.25 13.390625 -28.375 C 14.441406 -27.5 15.238281 -26.347656 15.78125 -24.921875 C 16.332031 -23.503906 16.679688 -21.910156 16.828125 -20.140625 C 16.984375 -18.378906 17.0625 -16.613281 17.0625 -14.84375 C 17.0625 -13.0625 16.984375 -11.28125 16.828125 -9.5 C 16.679688 -7.726562 16.332031 -6.140625 15.78125 -4.734375 C 15.238281 -3.328125 14.441406 -2.1875 13.390625 -1.3125 C 12.335938 -0.4375 10.921875 0 9.140625 0 Z M 9.140625 -1.96875 C 9.773438 -1.96875 10.320312 -2.335938 10.78125 -3.078125 C 11.25 -3.816406 11.640625 -4.785156 11.953125 -5.984375 C 12.265625 -7.191406 12.492188 -8.566406 12.640625 -10.109375 C 12.796875 -11.648438 12.875 -13.226562 12.875 -14.84375 C 12.875 -16.457031 12.796875 -18.035156 12.640625 -19.578125 C 12.492188 -21.117188 12.265625 -22.488281 11.953125 -23.6875 C 11.640625 -24.894531 11.25 -25.867188 10.78125 -26.609375 C 10.320312 -27.347656 9.773438 -27.71875 9.140625 -27.71875 C 8.515625 -27.71875 7.96875 -27.347656 7.5 -26.609375 C 7.039062 -25.867188 6.660156 -24.894531 6.359375 -23.6875 C 6.054688 -22.488281 5.820312 -21.117188 5.65625 -19.578125 C 5.488281 -18.035156 5.40625 -16.457031 5.40625 -14.84375 C 5.40625 -13.226562 5.488281 -11.648438 5.65625 -10.109375 C 5.820312 -8.566406 6.054688 -7.191406 6.359375 -5.984375 C 6.660156 -4.785156 7.039062 -3.816406 7.5 -3.078125 C 7.96875 -2.335938 8.515625 -1.96875 9.140625 -1.96875 Z M 9.140625 -1.96875 "/></g></g></g></svg>